<svg width="656" height="656" viewBox="0 0 656 656" fill="none" xmlns="http://www.w3.org/2000/svg">
    <rect width="656" height="656" fill="white"/>
    <path d="M612.185 186.259C612.033 186.842 612.097 187.46 612.365 187.999L614.855 194.439C618.035 202.639 621.212 210.843 624.385 219.049C624.785 220.049 625.115 221.129 625.465 222.169C625.677 222.626 625.726 223.141 625.605 223.629C625.45 224.211 625.481 224.827 625.695 225.389C626.03 226.961 626.732 228.431 627.745 229.679C628.113 230.153 628.351 230.715 628.435 231.309C629.175 234.219 629.945 237.119 630.675 240.019C632.895 248.949 634.885 257.929 636.515 267.019C637.615 273.119 638.525 279.249 639.245 285.409C639.695 289.409 640.245 293.339 640.715 297.319C641.205 301.789 641.715 306.259 642.055 310.749C642.958 323.121 643.142 335.536 642.605 347.929C642.445 352.329 642.075 356.719 641.705 361.099C641.345 365.289 640.885 369.459 640.405 373.629C639.685 379.999 638.645 386.309 637.485 392.629C635.102 405.616 631.899 418.438 627.895 431.019C614.63 473.134 592.846 512.07 563.895 545.409C519.769 596.319 460.449 631.699 394.685 646.329C389.025 647.579 383.325 648.639 377.625 649.679C374.975 650.169 372.295 650.519 369.625 650.929C368.945 651.029 368.245 651.059 367.855 651.829C367.765 652.019 367.345 652.089 367.065 652.129C360.318 652.989 353.552 653.656 346.765 654.129C336.965 654.799 327.165 654.769 317.365 654.509C312.365 654.379 307.365 653.939 302.365 653.579C299.372 653.359 296.372 653.079 293.365 652.739C289.985 652.349 286.605 651.939 283.245 651.419C277.025 650.419 270.815 649.419 264.645 648.119C249.666 645.004 234.913 640.888 220.485 635.799C218.695 635.169 216.915 634.499 215.125 633.799C214.147 633.573 213.266 633.045 212.605 632.289C212.329 632.017 211.983 631.826 211.605 631.739C210.846 631.49 210.075 631.279 209.295 631.109C207.536 630.72 205.828 630.13 204.205 629.349C203.563 629.073 202.974 628.688 202.465 628.209C201.467 627.212 200.192 626.539 198.805 626.279C196.851 625.842 194.982 625.085 193.275 624.039C191.715 623.149 190.205 622.179 188.645 621.269C188.253 620.968 187.786 620.781 187.295 620.729C186.492 620.746 185.703 620.516 185.035 620.069C171.355 612.549 157.825 604.779 145.035 595.769C134.599 588.511 124.848 580.314 115.905 571.279C115.205 570.569 114.465 569.889 113.735 569.219C85.1907 543.054 61.7505 511.818 44.6051 477.099C37.1975 462.236 30.9554 446.819 25.9351 430.989C23.5251 423.359 21.5451 415.609 19.5151 407.879C17.3624 399.64 15.6367 391.296 14.3451 382.879C13.3451 376.459 12.4551 370.019 11.9151 363.539C11.5551 359.349 11.3851 355.149 11.1851 350.959C10.8651 344.459 10.5751 337.963 10.3151 331.469C10.2151 328.979 10.2151 326.469 10.2351 323.969C10.2054 322.369 10.3665 320.771 10.7151 319.209C10.8486 318.524 10.9123 317.827 10.9051 317.129C10.9851 314.329 11.0251 311.529 11.1151 308.729C11.2351 304.329 11.6851 299.949 12.1151 295.569C12.5951 290.889 13.2551 286.239 13.9851 281.569C15.2351 273.569 16.8451 265.629 18.5751 257.719C19.0451 255.569 19.5751 253.419 20.0351 251.279C20.0855 250.784 20.2279 250.302 20.4551 249.859C21.3951 248.579 21.4551 247.069 21.8351 245.619C22.3151 243.679 22.8151 241.746 23.3351 239.819C23.9751 237.399 24.6451 234.999 25.3351 232.589C25.4012 232.195 25.5119 231.809 25.6651 231.439C26.4875 229.728 27.1277 227.935 27.5751 226.089C33.7955 206.227 41.9024 187.006 51.7851 168.689C67.4945 139.583 87.6048 113.077 111.405 90.1092C118.405 83.2992 125.785 76.7992 133.465 70.6892C134.565 69.8192 135.615 68.8992 136.685 67.9992H136.615V67.2692H136.685C136.915 66.5392 137.575 66.2192 138.115 65.7992C144.915 60.5192 151.938 55.5559 159.185 50.9092C184.327 34.8178 211.617 22.3612 240.245 13.9092C251.555 10.5292 263.035 7.82922 274.625 5.57922C275.805 5.34588 276.985 5.13588 278.165 4.94921C278.645 4.80664 279.151 4.77585 279.645 4.85921C281.11 5.23729 282.662 5.08498 284.025 4.42921C285.745 3.89463 287.508 3.51315 289.295 3.28922C289.98 3.14232 290.691 3.16636 291.365 3.35921C292.913 3.83133 294.578 3.73921 296.065 3.09921C297.189 2.67111 298.382 2.45086 299.585 2.44921C301.885 2.44921 304.185 2.38922 306.485 2.39922C307.279 2.48622 308.082 2.34029 308.795 1.97921C309.53 1.65506 310.335 1.52095 311.135 1.58921C314.635 1.48921 318.135 1.35921 321.645 1.31921C326.345 1.31921 331.045 1.31921 335.745 1.31921C341.555 1.31921 347.345 1.64921 353.135 2.02921C361.422 2.55847 369.672 3.5601 377.845 5.02921C382.075 5.78921 386.285 6.67921 390.455 7.72921C394.625 8.77921 398.995 9.80921 403.285 10.8092C418.379 14.3452 433.171 19.0631 447.525 24.9192C479.925 38.1185 509.876 56.6703 536.125 79.7992C543.055 85.8692 549.525 92.4092 556.025 98.9292C565.937 108.973 575.073 119.754 583.355 131.179C586.495 135.449 589.355 139.879 592.225 144.369C593.295 146.059 594.325 147.769 595.385 149.469C597.255 152.469 599.115 155.399 601.005 158.339C603.275 161.879 605.485 165.449 607.455 169.159C608.298 170.521 608.945 171.996 609.375 173.539C609.515 174.019 609.727 174.474 610.005 174.889C617.216 187.94 623.208 201.628 627.905 215.779C630.275 222.679 632.445 229.649 634.535 236.639C634.812 237.27 634.961 237.95 634.975 238.639C634.923 239.841 635.159 241.038 635.665 242.129C636.595 244.879 637.195 247.719 637.885 250.539C638.135 251.609 638.335 252.689 638.645 253.739C639.285 255.527 639.646 257.402 639.715 259.299C639.767 259.998 639.898 260.689 640.105 261.359C640.455 262.919 640.865 264.469 641.175 266.039C641.424 267.211 641.575 268.402 641.625 269.599C641.646 270.896 641.824 272.185 642.155 273.439C643.029 277.032 643.631 280.686 643.955 284.369C644.425 288.859 644.555 293.369 644.825 297.849C645.095 302.329 645.385 307.029 645.585 311.629C645.725 315.129 645.755 318.629 645.775 322.129C645.741 323.328 645.638 324.523 645.465 325.709C645.465 325.959 645.195 326.179 644.745 325.989C644.685 324.449 644.655 322.849 644.555 321.259C644.255 316.169 643.955 311.069 643.615 305.989C643.402 302.889 643.155 299.796 642.875 296.709C642.442 291.929 641.995 287.153 641.535 282.379C641.491 281.78 641.4 281.185 641.265 280.599C640.032 275.858 639.258 271.009 638.955 266.119C638.921 265.521 638.81 264.929 638.625 264.359C637.315 260.359 636.475 256.249 635.505 252.159C634.625 248.469 633.775 244.759 632.655 241.159C632.07 239.038 631.279 236.978 630.295 235.009C630.074 234.562 629.884 234.101 629.725 233.629C629.626 233.399 629.575 233.15 629.575 232.899C629.575 232.648 629.626 232.4 629.725 232.169C629.852 231.847 629.906 231.501 629.886 231.156C629.865 230.811 629.769 230.474 629.605 230.169C625.415 218.289 621.285 206.389 616.345 194.789C615.285 192.299 614.145 189.859 613.015 187.409C612.815 186.979 612.685 186.409 612.145 186.249C612.015 185.539 612.015 185.539 611.305 185.469C611.305 185.289 611.305 185.109 611.375 184.939L611.265 185.449C611.418 185.654 611.585 185.847 611.765 186.029C611.893 186.127 612.034 186.204 612.185 186.259ZM77.0751 517.099C77.3405 517.366 77.6988 517.52 78.0751 517.529C77.9975 517.706 77.9652 517.898 77.9809 518.091C77.9966 518.283 78.0599 518.468 78.1651 518.629C78.3651 518.959 78.5851 519.279 78.8151 519.629C78.9204 519.789 79.0764 519.908 79.2578 519.968C79.4392 520.028 79.6356 520.025 79.8151 519.959C79.8151 520.229 79.6751 520.559 79.8151 520.749C80.1165 521.522 80.6743 522.168 81.3951 522.579C81.782 523.765 82.5391 524.795 83.5551 525.519C83.6251 525.519 83.7451 525.519 83.8451 525.519C83.8451 525.809 83.8451 526.149 83.9851 526.359C84.5551 527.179 85.175 527.959 85.7951 528.749C124.01 576.581 175.452 612.113 233.715 630.919C246.273 634.979 259.088 638.196 272.075 640.549C277.285 641.489 282.535 642.299 287.785 642.999C292.635 643.639 297.515 644.109 302.405 644.509C307.498 644.943 312.592 645.233 317.685 645.379C328.986 645.729 340.298 645.429 351.565 644.479C358.545 643.886 365.498 643.083 372.425 642.069C380.425 640.889 388.378 639.372 396.285 637.519C457.834 623.157 513.456 590.161 555.565 543.029C599.305 493.946 626.581 432.401 633.565 367.029C634.298 360.156 634.788 353.273 635.035 346.379C635.47 335.081 635.29 323.768 634.495 312.489C633.948 304.696 633.122 296.943 632.015 289.229C630.835 280.996 629.318 272.836 627.465 264.749C622.065 241.04 613.878 218.054 603.075 196.269C587.556 164.677 566.566 136.082 541.075 111.809C508.109 80.2856 468.263 56.8617 424.685 43.3892C415.232 40.4527 405.628 38.0258 395.915 36.1192C390.415 35.0292 384.915 34.1192 379.355 33.3192C374.995 32.7292 370.605 32.3192 366.235 31.8692C361.055 31.3392 355.865 30.9492 350.665 30.8692C340.963 30.5341 331.251 30.6943 321.565 31.3492C318.075 31.6392 314.565 31.8192 311.095 32.1992C305.735 32.7792 300.375 33.4792 295.095 34.3392C285.808 35.8392 276.618 37.7925 267.525 40.1992C242.256 46.8612 218.027 56.9801 195.525 70.2692C166.364 87.3718 140.54 109.614 119.305 135.919C113.595 143.009 108.195 150.329 102.975 157.799C101.825 159.429 100.555 160.979 99.2851 162.519C98.761 163.122 98.1817 163.674 97.5551 164.169C97.4498 164.272 97.3244 164.352 97.1867 164.403C97.0489 164.455 96.9019 164.477 96.7551 164.469C96.0051 164.249 95.6251 164.649 95.2951 165.179C94.3751 166.609 93.4451 168.029 92.5651 169.489C91.0151 172.049 89.4551 174.619 87.9651 177.229C86.9583 178.965 85.5742 180.451 83.9151 181.579C83.6654 181.736 83.3964 181.861 83.1151 181.949C83.0731 181.957 83.03 181.955 82.9886 181.945C82.9472 181.935 82.9085 181.916 82.8751 181.889C82.7976 181.827 82.7473 181.738 82.7351 181.639C82.8251 181.15 82.9522 180.669 83.1151 180.199C85.2223 174.685 87.774 169.35 90.7451 164.249C91.1351 163.559 91.5051 162.839 91.9451 162.179C92.1421 161.879 92.2403 161.525 92.226 161.166C92.2116 160.808 92.0854 160.463 91.8651 160.179C92.3666 158.983 92.9829 157.837 93.7051 156.759C113.37 123.13 140.111 94.1787 172.075 71.9092C193.144 57.2919 216.14 45.671 240.405 37.3792C254.864 32.3665 269.675 28.4324 284.715 25.6092C290.125 24.6092 295.555 23.7092 301.015 23.0492C305.385 22.5292 309.755 22.0492 314.145 21.6792C318.925 21.2792 323.715 20.8992 328.515 20.7492C338.315 20.4292 348.115 20.4592 357.915 21.0992C363.505 21.4592 369.095 21.9292 374.655 22.5792C380.715 23.2792 386.735 24.2192 392.745 25.3092C429.147 31.9358 463.999 45.2724 495.525 64.6392C512.715 75.1134 528.745 87.3821 543.345 101.239C552.833 110.284 561.75 119.909 570.045 130.059C583.666 146.596 595.618 164.439 605.725 183.329C609.525 190.489 613.005 197.789 616.275 205.209C616.568 205.84 616.902 206.451 617.275 207.039C617.275 207.129 617.615 207.039 617.785 207.109C617.67 207.354 617.602 207.619 617.585 207.889C618.364 209.251 618.927 210.725 619.255 212.259C619.347 212.468 619.501 212.643 619.696 212.761C619.891 212.879 620.118 212.934 620.345 212.919C619.945 213.689 619.805 214.419 620.615 215.019C620.615 215.539 620.615 216.099 621.205 216.349C621.205 217.029 621.265 217.609 622.095 217.709C621.755 218.969 621.755 218.969 622.615 219.589C622.487 219.932 622.451 220.303 622.511 220.664C622.57 221.026 622.724 221.365 622.955 221.649C623.085 221.819 622.955 222.159 623.295 222.179C623.295 222.179 623.295 221.989 623.295 221.969C623.295 221.949 622.995 221.809 622.845 221.729C622.765 221.019 622.675 220.309 622.595 219.599C622.241 219.037 622.057 218.384 622.065 217.719C621.944 217.589 621.83 217.452 621.725 217.309C621.505 217.019 621.305 216.719 621.105 216.409C621.105 215.899 621.165 215.329 620.515 215.089L620.305 212.929C619.865 212.321 619.528 211.646 619.305 210.929C619.263 210.796 619.181 210.678 619.07 210.593C618.959 210.507 618.825 210.457 618.685 210.449C618.83 209.981 618.798 209.476 618.595 209.029C618.335 208.399 618.045 207.779 617.775 207.159C617.505 206.539 617.465 206.159 617.275 205.739C610.598 189.339 602.679 173.473 593.585 158.279C592.621 156.882 591.781 155.403 591.075 153.859C590.853 153.411 590.577 152.992 590.255 152.609C588.315 149.809 586.365 147.029 584.455 144.219C571.906 125.743 557.351 108.713 541.055 93.4392C504.409 58.7368 459.75 33.6351 411.055 20.3692C400.734 17.5455 390.269 15.2756 379.705 13.5692C374.475 12.7192 369.215 12.0392 363.945 11.4592C357.875 10.7792 351.795 10.2492 345.705 10.0092C329.407 9.23174 313.074 9.73662 296.855 11.5192C289.855 12.3192 282.975 13.2892 276.075 14.5192C263.769 16.7091 251.615 19.6784 239.685 23.4092C196.993 36.6364 157.707 59.032 124.575 89.0292C74.9793 133.722 40.8914 193.037 27.2451 258.389C25.1451 268.476 23.5384 278.646 22.4251 288.899C21.5551 296.959 20.9251 305.029 20.7151 313.129C20.238 328.141 20.8094 343.167 22.4251 358.099C23.3451 366.259 24.5484 374.369 26.0351 382.429C28.8978 397.872 32.9601 413.068 38.1851 427.879C54.9951 475.439 81.5851 516.669 118.495 551.099C156.668 586.706 201.145 610.689 251.925 623.049C260.585 625.149 269.325 626.789 278.145 628.049C284.575 628.959 291.045 629.629 297.525 630.129C303.715 630.599 309.915 630.809 316.115 630.939C324.425 631.109 332.715 630.689 341.005 630.109C347.595 629.659 354.155 628.939 360.685 628.009C368.805 626.849 376.855 625.319 384.855 623.479C406.121 618.583 426.753 611.258 446.345 601.649C484.098 583.087 517.397 556.59 543.964 523.97C570.531 491.351 589.739 453.378 600.275 412.649C602.342 404.609 604.045 396.489 605.385 388.289C606.295 382.669 607.045 377.019 607.755 371.359C608.285 367.089 608.635 362.799 609.065 358.529C609.26 356.536 609.649 354.567 610.225 352.649C610.267 352.402 610.36 352.165 610.497 351.956C610.635 351.746 610.815 351.566 611.025 351.429C611.345 351.276 611.611 351.03 611.79 350.723C611.968 350.416 612.05 350.063 612.025 349.709C612.025 348.309 612.165 346.909 612.195 345.509C612.195 343.509 612.195 341.509 612.275 339.509C612.275 338.009 612.355 336.509 612.435 335.009C612.543 333.104 613.08 331.248 614.005 329.579C614.052 329.5 614.116 329.432 614.192 329.38C614.268 329.329 614.354 329.294 614.445 329.279C614.537 329.301 614.624 329.344 614.697 329.405C614.769 329.465 614.827 329.542 614.865 329.629C614.995 330.006 615.088 330.395 615.145 330.789C615.979 336.417 616.387 342.1 616.365 347.789C616.365 348.789 616.365 349.789 616.365 350.789C616.36 351.088 616.39 351.387 616.455 351.679C616.491 351.869 616.598 352.037 616.755 352.149C617.021 352.287 617.237 352.505 617.372 352.772C617.507 353.04 617.553 353.344 617.505 353.639C617.505 357.739 617.335 361.839 617.155 365.939C616.815 373.839 616.065 381.699 615.015 389.529C613.419 401.429 611.031 413.208 607.865 424.789C600.504 451.866 589.038 477.656 573.865 501.259C543.141 548.751 499.95 586.881 449.015 611.479C419.201 625.793 387.209 635.033 354.355 638.819C347.095 639.669 339.815 640.199 332.515 640.509C321.314 640.983 310.095 640.806 298.915 639.979C290.915 639.389 282.995 638.499 275.085 637.219C265.016 635.597 255.042 633.434 245.205 630.739C222.428 624.48 200.407 615.741 179.535 604.679C158.873 593.832 139.628 580.478 122.235 564.919C110.701 554.545 99.8173 543.471 89.6451 531.759C88.0051 529.869 86.3951 527.949 84.7751 526.059C84.5151 525.759 84.2451 525.449 83.7751 525.489C83.7751 525.389 83.7751 525.269 83.7751 525.199C83.294 524.14 82.5421 523.226 81.5951 522.549C81.5251 522.549 81.4051 522.549 81.3051 522.549C81.3046 522.276 81.2538 522.004 81.1551 521.749C80.7151 521.129 80.2151 520.549 79.7251 519.959C79.6149 519.806 79.4581 519.691 79.278 519.634C79.0979 519.576 78.904 519.578 78.7251 519.639C78.7925 519.458 78.8167 519.263 78.7959 519.07C78.7751 518.877 78.7098 518.692 78.6051 518.529C78.4051 518.199 78.2151 517.859 77.9951 517.529L76.9951 517.129V516.959C77.0171 517.008 77.0439 517.055 77.0751 517.099ZM76.0751 515.219C76.1951 515.379 76.1751 515.419 76.0051 515.329H76.1651C75.9451 515.449 75.8651 515.409 75.9151 515.179L76.0751 515.219ZM604.615 172.369L604.675 171.699L604.595 172.359C605.065 172.539 605.115 172.999 605.275 173.359C605.695 174.029 606.115 174.709 606.555 175.359C606.668 175.509 606.826 175.62 607.006 175.674C607.186 175.728 607.378 175.722 607.555 175.659L607.465 176.289C607.525 176.089 607.345 175.839 607.595 175.679C607.125 175.499 606.935 175.059 606.685 174.679C606.467 174.267 606.213 173.876 605.925 173.509C605.795 173.369 605.425 173.429 605.185 173.379C605.435 172.559 605.435 172.559 604.625 172.329L604.615 172.369ZM624.075 224.879L623.985 224.289L623.785 224.349L624.135 224.809L624.615 226.709C624.71 226.884 624.787 227.068 624.845 227.259C624.905 227.569 624.995 227.629 625.125 227.399C625.134 227.35 625.13 227.3 625.114 227.253C625.098 227.206 625.071 227.163 625.035 227.129C624.895 226.999 624.725 226.899 624.575 226.769C624.66 226.438 624.659 226.09 624.572 225.759C624.484 225.428 624.313 225.125 624.075 224.879ZM628.625 237.459C628.625 237.869 628.625 238.279 628.545 238.699H628.645V237.459C628.401 237.228 628.218 236.94 628.111 236.62C628.005 236.301 627.979 235.961 628.035 235.629C627.635 235.369 627.465 234.799 626.895 234.779C626.906 234.498 626.933 234.218 626.975 233.939C627.045 233.639 626.975 233.539 626.785 233.659C626.785 233.659 626.785 233.839 626.785 233.929C626.785 234.209 626.785 234.489 626.785 234.769C627.195 235.029 627.375 235.589 627.955 235.629C627.951 235.811 627.93 235.991 627.895 236.169C627.851 236.3 627.835 236.439 627.847 236.577C627.859 236.715 627.9 236.849 627.967 236.97C628.034 237.091 628.125 237.197 628.235 237.282C628.344 237.366 628.471 237.426 628.605 237.459H628.625ZM631.055 249.209C631.055 248.779 631.405 248.349 631.055 247.839V249.199C631.175 249.349 631.365 249.479 631.395 249.639C631.439 249.862 631.538 250.07 631.683 250.245C631.828 250.419 632.014 250.555 632.225 250.639C632.225 251.059 631.935 251.469 632.285 251.999C632.285 251.469 632.285 251.059 632.285 250.649C632.175 250.489 631.995 250.339 631.975 250.179C631.945 249.944 631.841 249.724 631.68 249.55C631.519 249.376 631.307 249.257 631.075 249.209H631.055ZM629.305 242.459C629.305 242.169 629.395 241.889 629.445 241.599C629.495 241.309 629.375 241.199 629.155 241.299C629.155 241.299 629.155 241.479 629.155 241.569C629.155 241.859 629.275 242.139 629.335 242.429C629.471 242.661 629.575 242.91 629.645 243.169C629.678 243.393 629.758 243.607 629.878 243.798C629.999 243.989 630.158 244.153 630.345 244.279C630.345 244.549 630.345 244.829 630.275 245.099C630.205 245.369 630.355 245.479 630.555 245.369C630.555 245.369 630.615 245.189 630.555 245.109C630.475 244.849 630.365 244.589 630.265 244.329C630.172 244.069 630.102 243.801 630.055 243.529C630.025 243.301 629.939 243.084 629.805 242.897C629.671 242.71 629.492 242.56 629.285 242.459H629.305ZM632.985 254.459L632.885 254.219C632.885 254.279 632.745 254.339 632.735 254.409C632.685 254.659 632.735 254.779 632.925 254.699C633.115 254.619 632.945 254.539 632.965 254.449L632.985 254.459ZM626.195 231.459C626.255 231.459 626.345 231.459 626.355 231.399C626.355 231.159 626.265 231.099 626.145 231.249C626.025 231.399 626.155 231.349 626.175 231.419L626.195 231.459ZM625.755 229.579L625.685 229.359L625.625 229.749L625.755 229.579Z" fill="black"/>
    <path d="M470.535 619.459C470.455 619.459 470.315 619.459 470.305 619.529C470.235 619.749 470.305 619.859 470.595 619.799C470.63 619.776 470.659 619.745 470.68 619.708C470.701 619.672 470.713 619.631 470.715 619.589C470.715 619.589 470.595 619.509 470.535 619.459Z" fill="black"/>
    <path d="M475.075 618.099C475.292 618.144 475.519 618.102 475.705 617.983C475.892 617.863 476.025 617.675 476.075 617.459V617.339C475.85 617.359 475.635 617.444 475.457 617.585C475.279 617.725 475.147 617.914 475.075 618.129V618.099Z" fill="black"/>
    <path d="M475.076 618.149C474.839 618.085 474.588 618.109 474.369 618.218C474.149 618.327 473.977 618.512 473.886 618.739C474.176 618.329 474.666 618.319 475.066 618.139L475.076 618.149Z" fill="black"/>
    <path d="M473.875 618.739C473.639 618.678 473.389 618.706 473.172 618.816C472.955 618.927 472.785 619.113 472.695 619.339C472.997 618.986 473.423 618.764 473.885 618.719L473.875 618.739Z" fill="black"/>
    <path d="M472.695 619.339L470.535 619.459L472.695 619.339Z" fill="black"/>
    <path d="M476.075 617.479L476.005 617.269C475.845 617.419 475.885 617.459 476.125 617.369L476.075 617.479Z" fill="black"/>
    <path d="M629.266 242.489C629.473 242.572 629.655 242.708 629.794 242.884C629.933 243.059 630.023 243.268 630.056 243.489C630.102 243.761 630.172 244.029 630.266 244.289L630.326 244.219C630.132 244.103 629.966 243.945 629.842 243.756C629.717 243.567 629.636 243.353 629.606 243.129C629.536 242.87 629.432 242.621 629.296 242.389L629.266 242.489Z" fill="white"/>
    <path d="M631.075 249.209C631.305 249.266 631.51 249.393 631.665 249.572C631.819 249.751 631.913 249.974 631.935 250.209C631.935 250.369 632.135 250.519 632.245 250.679C632.031 250.6 631.842 250.466 631.696 250.29C631.551 250.115 631.454 249.904 631.415 249.679C631.415 249.519 631.195 249.389 631.075 249.239V249.209Z" fill="white"/>
    <path d="M628.016 235.619C627.436 235.619 627.256 235.029 626.846 234.769C627.416 234.769 627.586 235.359 627.986 235.619H628.016Z" fill="white"/>
    <path d="M632.205 250.699C632.205 251.109 632.205 251.519 632.205 252.049C631.855 251.519 632.135 251.109 632.145 250.679L632.205 250.699Z" fill="white"/>
    <path d="M628.606 237.449C628.478 237.41 628.359 237.345 628.257 237.258C628.154 237.172 628.07 237.066 628.01 236.947C627.949 236.827 627.913 236.697 627.904 236.563C627.894 236.43 627.912 236.296 627.956 236.169C627.991 235.988 628.011 235.804 628.015 235.619C627.959 235.951 627.986 236.291 628.092 236.61C628.198 236.93 628.382 237.218 628.626 237.449H628.606Z" fill="white"/>
    <path d="M628.625 237.459V238.699H628.525C628.525 238.279 628.525 237.869 628.605 237.459H628.625Z" fill="white"/>
    <path d="M629.295 242.429C629.235 242.139 629.165 241.859 629.115 241.569C629.115 241.479 629.115 241.309 629.115 241.299C629.335 241.199 629.445 241.299 629.405 241.599L629.255 242.469L629.295 242.429Z" fill="white"/>
    <path d="M630.266 244.329C630.366 244.589 630.476 244.849 630.556 245.109C630.556 245.189 630.556 245.339 630.556 245.369C630.356 245.479 630.256 245.369 630.276 245.099C630.296 244.829 630.276 244.549 630.356 244.269L630.266 244.329Z" fill="white"/>
    <path d="M631.075 249.199V247.839C631.435 248.349 631.075 248.779 631.075 249.209V249.199Z" fill="white"/>
    <path d="M632.966 254.449C632.966 254.539 632.966 254.669 632.906 254.689C632.846 254.709 632.666 254.689 632.716 254.399C632.716 254.329 632.816 254.269 632.866 254.209L632.966 254.449Z" fill="white"/>
    <path d="M624.545 226.789C624.71 226.891 624.867 227.005 625.015 227.129C625.051 227.163 625.078 227.206 625.094 227.253C625.11 227.3 625.114 227.35 625.105 227.399C624.975 227.629 624.885 227.569 624.825 227.259C624.767 227.069 624.69 226.884 624.595 226.709L624.545 226.789Z" fill="white"/>
    <path d="M622.075 217.679C621.225 217.609 621.075 217.029 621.165 216.349L621.085 216.419C621.285 216.719 621.485 217.019 621.705 217.309C621.81 217.452 621.924 217.589 622.045 217.719L622.075 217.679Z" fill="white"/>
    <path d="M622.075 217.719C622.071 218.388 622.251 219.046 622.595 219.619C621.715 219.019 621.715 219.019 622.065 217.739L622.075 217.719Z" fill="white"/>
    <path d="M622.895 221.649C622.666 221.362 622.516 221.02 622.46 220.657C622.404 220.294 622.444 219.922 622.575 219.579C622.665 220.269 622.755 220.979 622.835 221.689L622.895 221.649Z" fill="white"/>
    <path d="M624.595 226.709L624.115 224.809L624.045 224.889C624.29 225.131 624.466 225.433 624.556 225.765C624.645 226.097 624.645 226.447 624.555 226.779L624.595 226.709Z" fill="white"/>
    <path d="M626.845 234.769C626.845 234.489 626.845 234.209 626.845 233.929C626.845 233.839 626.765 233.669 626.845 233.659C627.055 233.539 627.105 233.659 627.035 233.939C626.993 234.218 626.966 234.498 626.955 234.779L626.845 234.769Z" fill="white"/>
    <path d="M626.185 231.419C626.185 231.349 626.095 231.239 626.125 231.209C626.155 231.179 626.335 231.119 626.335 231.359C626.325 231.379 626.235 231.399 626.185 231.419Z" fill="white"/>
    <path d="M625.735 229.539L625.605 229.709L625.665 229.319L625.735 229.539Z" fill="white"/>
    <path d="M624.076 224.809L623.726 224.349L623.926 224.289C623.926 224.489 623.986 224.679 624.006 224.889L624.076 224.809Z" fill="white"/>
    <path d="M622.815 221.729C622.965 221.809 623.125 221.879 623.265 221.969C623.405 222.059 623.265 222.179 623.265 222.179C622.925 222.179 623.055 221.819 622.925 221.649L622.815 221.729Z" fill="white"/>
    <path d="M238.675 309.929C240.315 309.999 242.615 310.059 244.905 310.189C248.395 310.462 251.848 311.099 255.205 312.089C264.24 314.695 272.959 318.29 281.205 322.809C286.205 325.429 291.085 328.079 296.035 330.709C296.825 331.139 297.645 331.509 298.465 331.889C298.752 331.981 299.062 331.966 299.338 331.846C299.614 331.727 299.837 331.511 299.965 331.239C300.325 330.409 300.665 329.579 300.965 328.729C305.399 316.509 309.825 304.289 314.245 292.069L331.885 243.269C332.195 242.429 332.505 241.579 332.885 240.759C333.142 240.101 333.591 239.536 334.175 239.138C334.758 238.74 335.449 238.528 336.155 238.529H337.055H346.365H346.965C347.67 238.52 348.363 238.719 348.955 239.101C349.547 239.484 350.014 240.033 350.295 240.679C350.721 241.586 351.092 242.518 351.405 243.469C355.852 255.889 360.335 268.299 364.855 280.699L401.635 382.209C402.075 383.439 402.535 384.649 402.935 385.889C403.168 386.609 403.192 387.38 403.005 388.113C402.817 388.845 402.425 389.51 401.875 390.029C401.616 390.337 401.297 390.59 400.938 390.772C400.579 390.954 400.187 391.062 399.785 391.089C399.485 391.089 399.185 391.139 398.895 391.139C396.385 391.139 393.895 391.139 391.385 391.139C390.478 391.206 389.576 390.955 388.833 390.43C388.091 389.904 387.554 389.137 387.315 388.259L386.475 386.009L376.255 357.809C375.975 357.059 375.685 356.319 375.355 355.589C375.212 355.325 374.989 355.113 374.718 354.983C374.446 354.854 374.141 354.814 373.845 354.869C373.256 354.991 372.675 355.148 372.105 355.339C367.632 356.772 363.077 357.937 358.465 358.829C350.602 360.375 342.565 360.842 334.575 360.219C326.791 359.543 319.128 357.863 311.775 355.219C311.025 354.949 310.275 354.679 309.515 354.439C309.221 354.363 308.91 354.391 308.635 354.519C308.359 354.646 308.137 354.866 308.005 355.139C307.685 355.873 307.385 356.613 307.105 357.359C303.525 367.233 299.949 377.103 296.375 386.969C296.135 387.629 295.915 388.289 295.635 388.969C295.422 389.595 295.018 390.138 294.48 390.522C293.941 390.906 293.296 391.111 292.635 391.109C289.635 391.149 286.635 391.149 283.635 391.109C283.085 391.064 282.552 390.901 282.07 390.632C281.588 390.363 281.17 389.994 280.843 389.55C280.516 389.105 280.288 388.596 280.175 388.056C280.061 387.516 280.065 386.958 280.185 386.419C280.371 385.643 280.611 384.881 280.905 384.139C282.745 379.059 284.585 373.983 286.425 368.909C288.579 362.989 290.722 357.069 292.855 351.149C293.125 350.389 293.405 349.639 293.655 348.879C293.801 348.506 293.799 348.09 293.648 347.718C293.498 347.346 293.21 347.046 292.845 346.879C292.415 346.619 291.975 346.389 291.535 346.159C286.145 343.289 280.785 340.379 275.385 337.549C271.745 335.659 268.055 333.869 264.385 332.069C261.247 330.516 257.952 329.302 254.555 328.449C252.225 327.879 249.905 327.259 247.555 326.689C243.655 325.756 239.626 325.482 235.635 325.879C233.445 326.089 231.245 326.179 229.065 326.439C224.986 326.925 220.987 327.933 217.165 329.439C214.655 330.439 212.165 331.509 209.695 332.569C208.875 332.919 208.065 333.309 207.235 333.679C206.437 333.989 205.56 334.029 204.737 333.794C203.914 333.56 203.19 333.063 202.675 332.379C202.491 332.143 202.327 331.892 202.185 331.629L198.895 325.229C198.527 324.515 198.367 323.71 198.435 322.909C198.469 322.255 198.66 321.619 198.992 321.055C199.325 320.491 199.789 320.015 200.345 319.669C200.86 319.362 201.391 319.081 201.935 318.829C209.505 315.174 217.504 312.486 225.745 310.829C228.983 310.179 232.284 309.898 235.585 309.989C236.405 309.949 237.205 309.929 238.675 309.929ZM341.475 344.729C344.877 344.792 348.277 344.547 351.635 343.999C356.678 343.263 361.652 342.113 366.505 340.559C367.175 340.349 367.825 340.099 368.505 339.839C368.771 339.698 368.984 339.475 369.112 339.203C369.24 338.93 369.276 338.624 369.215 338.329C368.895 337.279 368.565 336.229 368.215 335.199L350.655 286.749C348.375 280.463 346.095 274.169 343.815 267.869C343.548 267.117 343.241 266.379 342.895 265.659C342.783 265.465 342.624 265.301 342.432 265.184C342.24 265.066 342.022 264.998 341.798 264.986C341.573 264.974 341.349 265.019 341.146 265.115C340.943 265.212 340.768 265.358 340.635 265.539C340.469 265.789 340.325 266.054 340.205 266.329C339.945 266.979 339.715 267.639 339.475 268.329L319.765 322.689C318.065 327.389 316.359 332.086 314.645 336.779C313.965 338.639 314.215 339.359 316.305 340.109C324.386 343.017 332.889 344.578 341.475 344.729Z" fill="black"/>
    <path d="M131.135 315.919C131.135 299.709 134.925 285.579 142.545 272.499C150.108 259.271 161.813 248.897 175.855 242.979C181.577 240.516 187.652 238.97 193.855 238.399C211.385 236.739 226.855 241.869 240.485 252.729C243.687 255.296 246.64 258.159 249.305 261.279C249.635 261.659 249.975 262.029 250.305 262.439C250.639 262.849 250.888 263.32 251.039 263.826C251.19 264.333 251.239 264.864 251.183 265.389C251.127 265.915 250.968 266.424 250.714 266.887C250.46 267.35 250.118 267.759 249.705 268.089C247.705 269.749 245.595 271.269 243.525 272.849C243.373 272.98 243.205 273.09 243.025 273.179C242.409 273.545 241.696 273.715 240.982 273.664C240.267 273.614 239.584 273.347 239.025 272.899C238.491 272.449 237.99 271.961 237.525 271.439C236.115 270.019 234.785 268.519 233.315 267.169C226.993 261.257 219.238 257.096 210.815 255.099C206.822 254.147 202.719 253.733 198.615 253.869C186.035 254.249 175.375 259.209 166.245 267.659C160.242 273.283 155.474 280.094 152.245 287.659C148.867 295.376 147 303.669 146.745 312.089C146.35 321.315 147.823 330.526 151.075 339.169C153.731 346.314 157.677 352.91 162.715 358.629C168.206 364.909 175.109 369.796 182.855 372.889C188.155 374.981 193.798 376.069 199.495 376.099C205.307 376.181 211.085 375.202 216.545 373.209C222.359 371.004 227.713 367.739 232.335 363.579C233.015 362.989 233.685 362.389 234.335 361.769C235.088 361.181 236.015 360.862 236.97 360.862C237.925 360.862 238.853 361.181 239.605 361.769C241.505 363.539 243.415 365.299 245.275 367.119C246.023 367.877 246.443 368.899 246.443 369.964C246.443 371.029 246.023 372.051 245.275 372.809C245.065 373.019 244.865 373.239 244.645 373.449C237.771 380.203 229.496 385.361 220.405 388.559C213.182 390.985 205.58 392.083 197.965 391.799C182.625 391.389 169.375 385.709 157.795 375.849C150.748 369.755 144.928 362.373 140.645 354.099C136.84 346.937 134.142 339.24 132.645 331.269C131.642 326.214 131.136 321.073 131.135 315.919Z" fill="black"/>
    <path d="M429.505 314.379V244.439C429.505 243.439 429.505 242.439 429.575 241.439C429.667 240.681 430.014 239.977 430.559 239.443C431.105 238.908 431.816 238.576 432.575 238.499C433.274 238.441 433.975 238.417 434.675 238.429H515.075C515.675 238.429 516.285 238.429 516.885 238.429C517.794 238.449 518.66 238.815 519.307 239.453C519.954 240.091 520.332 240.951 520.365 241.859C520.365 244.659 520.365 247.459 520.365 250.259C520.387 251.224 520.025 252.158 519.36 252.857C518.695 253.556 517.78 253.963 516.815 253.989C515.815 254.069 514.815 253.989 513.815 253.989H451.375H448.375C447.57 254.028 446.8 254.33 446.182 254.848C445.564 255.367 445.134 256.073 444.955 256.859C444.859 257.246 444.802 257.641 444.785 258.039C444.785 258.839 444.785 259.639 444.785 260.439V307.269C444.785 308.069 444.785 308.869 444.785 309.669C444.789 310.068 444.842 310.464 444.945 310.849C445.099 311.591 445.481 312.266 446.036 312.78C446.592 313.294 447.294 313.623 448.045 313.719C448.941 313.826 449.844 313.863 450.745 313.829H487.665C488.265 313.829 488.865 313.829 489.465 313.909C490.263 314.014 491.005 314.375 491.58 314.938C492.155 315.5 492.532 316.234 492.655 317.029C492.655 317.329 492.715 317.629 492.725 317.929C492.725 320.429 492.725 322.929 492.725 325.429C492.727 326.027 492.618 326.62 492.405 327.179C492.147 327.837 491.708 328.408 491.138 328.826C490.567 329.244 489.89 329.491 489.185 329.539C488.285 329.629 487.385 329.599 486.485 329.599H451.075C450.165 329.599 449.265 329.599 448.365 329.599C447.611 329.627 446.885 329.892 446.29 330.357C445.696 330.823 445.264 331.464 445.055 332.189C444.916 332.668 444.836 333.161 444.815 333.659C444.815 334.559 444.815 335.459 444.815 336.359V384.089C444.815 385.089 444.815 386.089 444.755 387.089C444.676 387.94 444.294 388.735 443.68 389.329C443.065 389.923 442.259 390.278 441.405 390.329C438.505 390.329 435.605 390.329 432.705 390.329C431.958 390.264 431.255 389.948 430.71 389.433C430.165 388.917 429.811 388.232 429.705 387.489C429.657 387.091 429.634 386.69 429.635 386.289C429.635 385.489 429.635 384.689 429.635 383.889L429.505 314.379Z" fill="black"/>
    <path d="M411.075 446.689C412.683 446.649 414.279 446.972 415.744 447.636C417.209 448.299 418.505 449.285 419.535 450.519C421.642 452.962 422.824 456.068 422.876 459.293C422.927 462.519 421.844 465.66 419.815 468.169C418.733 469.521 417.349 470.601 415.775 471.323C414.201 472.046 412.481 472.391 410.75 472.33C409.019 472.27 407.326 471.807 405.806 470.977C404.287 470.146 402.982 468.973 401.995 467.549C400.305 465.172 399.406 462.323 399.426 459.407C399.446 456.49 400.383 453.653 402.105 451.299C403.125 449.871 404.471 448.708 406.031 447.906C407.591 447.104 409.321 446.687 411.075 446.689ZM410.945 451.559C409.882 451.547 408.838 451.85 407.945 452.429C407.012 453.01 406.214 453.784 405.605 454.699C404.474 456.481 404.016 458.609 404.315 460.699C404.504 462.705 405.465 464.559 406.995 465.869C407.806 466.617 408.811 467.12 409.895 467.319C411.03 467.559 412.209 467.478 413.3 467.086C414.392 466.694 415.353 466.006 416.075 465.099C417.414 463.533 418.15 461.54 418.15 459.479C418.15 457.419 417.414 455.426 416.075 453.859C415.462 453.093 414.675 452.485 413.779 452.085C412.883 451.685 411.905 451.505 410.925 451.559H410.945Z" fill="black"/>
    <path d="M246.575 446.699C247.994 446.673 249.403 446.938 250.716 447.478C252.028 448.019 253.216 448.822 254.205 449.839C256.325 451.856 257.67 454.552 258.005 457.459C258.367 459.84 258.113 462.275 257.265 464.529C256.616 466.209 255.629 467.737 254.365 469.019C253.277 470.129 251.967 470.997 250.521 471.566C249.075 472.136 247.525 472.395 245.972 472.326C244.42 472.257 242.899 471.862 241.509 471.167C240.119 470.471 238.891 469.491 237.905 468.289C235.854 465.803 234.737 462.677 234.748 459.453C234.759 456.23 235.897 453.112 237.965 450.639C239.02 449.387 240.339 448.383 241.828 447.702C243.317 447.021 244.938 446.678 246.575 446.699ZM253.405 459.469C253.416 458.323 253.192 457.186 252.748 456.129C252.305 455.071 251.651 454.115 250.825 453.319C249.676 452.188 248.132 451.548 246.519 451.535C244.907 451.522 243.353 452.137 242.185 453.249C241.342 454.06 240.671 455.033 240.212 456.109C239.754 457.186 239.517 458.344 239.517 459.514C239.517 460.684 239.754 461.842 240.212 462.919C240.671 463.995 241.342 464.968 242.185 465.779C243.372 466.864 244.928 467.454 246.536 467.43C248.144 467.406 249.681 466.769 250.835 465.649C251.658 464.846 252.31 463.884 252.752 462.822C253.193 461.76 253.416 460.619 253.405 459.469Z" fill="black"/>
    <path d="M394.315 459.549C394.315 462.939 394.315 466.329 394.315 469.729C394.315 471.589 393.835 472.009 392.015 472.019C390.665 472.019 389.585 471.859 389.575 469.789C389.575 468.589 389.575 467.389 389.575 466.189C389.575 465.589 389.525 464.999 389.485 464.399C389.461 464.204 389.38 464.02 389.252 463.871C389.124 463.721 388.955 463.613 388.765 463.559C388.665 463.559 388.575 463.499 388.475 463.499C385.785 463.499 383.085 463.499 380.395 463.499C380.195 463.491 379.996 463.543 379.825 463.649C379.605 463.819 379.315 464.049 379.285 464.289C379.202 465.08 379.159 465.874 379.155 466.669C379.155 467.969 379.155 469.269 379.085 470.559C379.079 470.913 378.942 471.253 378.7 471.511C378.458 471.77 378.128 471.93 377.775 471.959C377.079 471.999 376.381 471.999 375.685 471.959C375.389 471.911 375.113 471.775 374.896 471.568C374.678 471.361 374.528 471.093 374.465 470.799C374.465 470.299 374.385 469.799 374.385 469.299C374.385 462.713 374.385 456.126 374.385 449.539C374.385 449.041 374.415 448.544 374.475 448.049C374.53 447.753 374.675 447.482 374.89 447.271C375.104 447.059 375.378 446.919 375.675 446.869C376.27 446.809 376.868 446.789 377.465 446.809C377.691 446.805 377.916 446.847 378.125 446.934C378.334 447.021 378.522 447.15 378.678 447.314C378.834 447.477 378.955 447.672 379.032 447.884C379.109 448.097 379.141 448.324 379.125 448.549C379.125 449.249 379.125 449.949 379.125 450.649C379.125 452.549 379.125 454.439 379.125 456.339C379.125 458.239 379.225 458.559 381.355 458.569C383.485 458.579 385.355 458.569 387.355 458.569C387.851 458.575 388.345 458.514 388.825 458.389C388.958 458.338 389.079 458.259 389.179 458.157C389.279 458.055 389.356 457.933 389.405 457.799C389.507 457.212 389.554 456.616 389.545 456.019C389.545 453.829 389.545 451.629 389.545 449.429C389.545 447.229 390.095 446.809 392.245 446.859C392.543 446.863 392.841 446.886 393.135 446.929C393.378 446.988 393.599 447.113 393.775 447.289C393.952 447.465 394.076 447.687 394.135 447.929C394.213 448.52 394.257 449.114 394.265 449.709C394.265 453.009 394.265 456.299 394.265 459.599L394.315 459.549Z" fill="black"/>
    <path d="M426.125 459.389C426.125 456.189 426.125 452.999 426.125 449.799C426.127 449.2 426.173 448.601 426.265 448.009C426.338 447.719 426.492 447.457 426.71 447.253C426.929 447.049 427.201 446.912 427.495 446.859C427.69 446.819 427.887 446.792 428.085 446.779H434.085C436.616 446.837 439.031 447.853 440.842 449.622C442.654 451.39 443.727 453.78 443.845 456.309C444.038 458.988 443.161 461.634 441.407 463.668C439.652 465.702 437.163 466.957 434.485 467.159C433.595 467.259 432.695 467.249 431.795 467.299C431.599 467.332 431.417 467.423 431.273 467.56C431.128 467.698 431.028 467.875 430.985 468.069C430.915 468.959 430.885 469.859 430.815 470.749C430.793 471.104 430.642 471.437 430.389 471.686C430.136 471.936 429.8 472.083 429.445 472.099C428.849 472.134 428.251 472.134 427.655 472.099C427.252 472.064 426.876 471.88 426.603 471.582C426.329 471.284 426.176 470.894 426.175 470.489C426.175 469.789 426.115 469.089 426.115 468.399L426.125 459.389ZM430.885 456.999C430.885 457.499 430.885 457.999 430.885 458.499C430.885 459.399 430.885 460.299 430.885 461.199C430.905 461.499 431.036 461.781 431.252 461.99C431.468 462.199 431.755 462.32 432.055 462.329C433.352 462.487 434.668 462.322 435.885 461.849C436.89 461.391 437.732 460.637 438.298 459.688C438.864 458.74 439.128 457.641 439.055 456.539C438.927 455.389 438.44 454.307 437.663 453.449C436.885 452.591 435.858 452 434.725 451.759C433.727 451.678 432.724 451.678 431.725 451.759C431.529 451.795 431.349 451.888 431.206 452.027C431.064 452.166 430.966 452.344 430.925 452.539C430.876 452.834 430.846 453.131 430.835 453.429C430.885 454.599 430.885 455.799 430.885 456.999Z" fill="black"/>
    <path d="M302.306 459.339C302.306 455.949 302.306 452.549 302.306 449.149C302.306 447.299 302.776 446.839 304.616 446.829C308.506 446.829 312.406 446.829 316.306 446.829C316.606 446.829 316.906 446.829 317.206 446.899C317.504 446.936 317.784 447.064 318.006 447.267C318.228 447.469 318.382 447.736 318.446 448.029C318.491 448.825 318.491 449.623 318.446 450.419C318.386 450.714 318.237 450.982 318.019 451.188C317.8 451.394 317.523 451.527 317.226 451.569C316.426 451.569 315.626 451.649 314.836 451.649H308.836C308.536 451.649 308.236 451.709 307.946 451.739C307.751 451.78 307.572 451.878 307.434 452.02C307.295 452.163 307.201 452.343 307.166 452.539C307.166 453.739 307.096 454.929 307.106 456.129C307.093 456.305 307.119 456.481 307.182 456.646C307.245 456.81 307.343 456.959 307.47 457.081C307.597 457.203 307.75 457.296 307.916 457.353C308.083 457.41 308.261 457.429 308.436 457.409C309.536 457.409 310.636 457.409 311.736 457.459C312.226 457.459 312.736 457.459 313.226 457.569C313.521 457.628 313.789 457.78 313.991 458.004C314.193 458.227 314.317 458.51 314.346 458.809C314.396 459.505 314.396 460.203 314.346 460.899C314.325 461.257 314.167 461.594 313.904 461.838C313.641 462.082 313.294 462.215 312.936 462.209C311.746 462.289 310.536 462.269 309.346 462.289L308.146 462.349C307.895 462.362 307.656 462.463 307.473 462.636C307.29 462.808 307.174 463.039 307.146 463.289C307.146 464.289 307.146 465.289 307.146 466.289C307.163 466.542 307.277 466.779 307.462 466.952C307.648 467.124 307.892 467.22 308.146 467.219C310.036 467.219 311.936 467.219 313.836 467.279C314.936 467.279 316.036 467.279 317.136 467.349C317.486 467.385 317.813 467.543 318.06 467.795C318.307 468.047 318.457 468.378 318.486 468.729C318.526 469.425 318.526 470.123 318.486 470.819C318.437 471.116 318.298 471.391 318.089 471.607C317.88 471.823 317.611 471.97 317.316 472.029C316.916 472.029 316.516 472.099 316.126 472.109C312.326 472.109 308.526 472.109 304.726 472.109C302.726 472.109 302.346 471.679 302.336 469.569C302.336 466.169 302.336 462.769 302.336 459.369L302.306 459.339Z" fill="black"/>
    <path d="M322.655 459.449C322.655 456.159 322.655 452.859 322.655 449.569C322.657 448.975 322.714 448.383 322.825 447.799C322.86 447.599 322.956 447.414 323.099 447.269C323.242 447.125 323.425 447.027 323.625 446.989C324.008 446.891 324.4 446.838 324.795 446.829H336.795C337.093 446.836 337.391 446.863 337.685 446.909C337.92 446.983 338.134 447.113 338.308 447.287C338.482 447.461 338.611 447.674 338.685 447.909C338.772 448.599 338.808 449.294 338.795 449.989C338.797 450.215 338.752 450.438 338.664 450.645C338.575 450.852 338.444 451.039 338.28 451.193C338.115 451.347 337.921 451.466 337.708 451.541C337.496 451.616 337.27 451.646 337.045 451.629C334.945 451.629 332.855 451.629 330.755 451.629C329.965 451.629 329.165 451.629 328.365 451.699C328.116 451.728 327.886 451.844 327.715 452.027C327.545 452.211 327.446 452.449 327.435 452.699C327.435 453.889 327.435 455.089 327.435 456.289C327.436 456.439 327.468 456.588 327.528 456.725C327.588 456.863 327.676 456.987 327.785 457.09C327.894 457.192 328.023 457.272 328.164 457.323C328.305 457.375 328.455 457.397 328.605 457.389C329.795 457.389 330.995 457.389 332.195 457.449C332.595 457.449 332.985 457.449 333.385 457.539C333.681 457.593 333.954 457.731 334.172 457.937C334.391 458.143 334.545 458.408 334.615 458.699C334.615 458.889 334.615 459.089 334.675 459.289C334.775 461.609 334.445 462.289 331.825 462.289C330.635 462.289 329.435 462.349 328.245 462.399C328.054 462.441 327.878 462.538 327.741 462.678C327.605 462.819 327.512 462.997 327.475 463.189C327.475 463.389 327.405 463.589 327.405 463.779C327.355 467.349 327.125 467.259 330.745 467.249C332.645 467.249 334.535 467.249 336.435 467.249C336.834 467.237 337.234 467.271 337.625 467.349C337.867 467.41 338.087 467.535 338.263 467.711C338.439 467.887 338.564 468.108 338.625 468.349C338.845 469.222 338.845 470.136 338.625 471.009C338.538 471.237 338.404 471.443 338.231 471.615C338.059 471.788 337.853 471.922 337.625 472.009C337.23 472.059 336.833 472.09 336.435 472.099H325.075C324.581 472.093 324.088 472.036 323.605 471.929C323.407 471.89 323.226 471.791 323.085 471.647C322.944 471.502 322.85 471.318 322.815 471.119C322.7 470.536 322.64 469.944 322.635 469.349C322.645 466.029 322.655 462.739 322.655 459.449Z" fill="black"/>
    <path d="M362.975 472.809C361.501 472.842 360.036 472.566 358.675 471.999C357.582 471.497 356.608 470.77 355.815 469.865C355.023 468.96 354.43 467.899 354.075 466.749C353.952 466.358 353.988 465.934 354.175 465.569C354.362 465.204 354.686 464.928 355.075 464.799C355.639 464.607 356.218 464.46 356.805 464.359C357.104 464.308 357.411 464.343 357.691 464.46C357.971 464.577 358.212 464.771 358.385 465.019C358.745 465.489 359.025 466.019 359.385 466.499C359.688 466.9 360.075 467.23 360.519 467.465C360.963 467.7 361.454 467.835 361.955 467.859C362.548 467.904 363.143 467.904 363.735 467.859C364.337 467.775 364.898 467.51 365.345 467.099C365.571 466.902 365.752 466.66 365.878 466.388C366.005 466.117 366.073 465.822 366.078 465.523C366.084 465.223 366.027 464.926 365.911 464.65C365.795 464.374 365.623 464.125 365.405 463.919C364.697 463.367 363.937 462.884 363.135 462.479C361.985 461.879 360.785 461.369 359.625 460.809C358.435 460.273 357.364 459.505 356.475 458.549C355.67 457.72 355.104 456.688 354.839 455.563C354.573 454.438 354.616 453.261 354.965 452.159C355.361 450.534 356.293 449.09 357.61 448.059C358.927 447.029 360.553 446.472 362.225 446.479C363.828 446.3 365.449 446.575 366.903 447.273C368.357 447.972 369.584 449.066 370.445 450.429C370.65 450.771 370.811 451.137 370.925 451.519C371.001 451.811 370.985 452.12 370.88 452.402C370.774 452.685 370.584 452.928 370.335 453.099C369.632 453.464 368.895 453.762 368.135 453.989C367.941 454.013 367.743 453.997 367.555 453.944C367.366 453.891 367.189 453.801 367.035 453.679C366.682 453.342 366.348 452.984 366.035 452.609C365.429 452.001 364.659 451.583 363.819 451.405C362.979 451.228 362.106 451.299 361.305 451.609C360.833 451.779 360.423 452.085 360.125 452.489C359.905 452.698 359.738 452.957 359.636 453.243C359.535 453.529 359.502 453.835 359.541 454.136C359.58 454.437 359.69 454.724 359.861 454.975C360.032 455.226 360.259 455.433 360.525 455.579C361.462 456.148 362.426 456.669 363.415 457.139C364.485 457.689 365.575 458.199 366.645 458.729C367.621 459.237 368.498 459.914 369.235 460.729C370.205 461.755 370.782 463.09 370.865 464.499C371.007 465.697 370.873 466.911 370.475 468.049C370.001 469.211 369.243 470.235 368.269 471.026C367.296 471.818 366.139 472.352 364.905 472.579C364.268 472.702 363.623 472.779 362.975 472.809Z" fill="black"/>
    <path d="M210.395 459.189C210.377 457.059 210.911 454.961 211.945 453.099C213.102 450.795 214.985 448.936 217.304 447.81C219.624 446.684 222.249 446.353 224.775 446.869C227.168 447.272 229.344 448.499 230.925 450.339C231.068 450.481 231.181 450.649 231.258 450.834C231.336 451.02 231.376 451.218 231.376 451.419C231.376 451.62 231.336 451.819 231.258 452.004C231.181 452.19 231.068 452.358 230.925 452.499C230.642 452.781 230.341 453.045 230.025 453.289C229.025 454.059 228.255 454.289 227.095 453.289C226.875 453.089 226.625 452.919 226.385 452.729C225.01 451.803 223.35 451.395 221.702 451.578C220.053 451.761 218.524 452.523 217.385 453.729C215.983 455.314 215.216 457.361 215.233 459.477C215.249 461.592 216.048 463.627 217.475 465.189C218.519 466.281 219.89 467.002 221.38 467.244C222.871 467.486 224.4 467.235 225.735 466.529C226.075 466.329 226.405 466.099 226.735 465.899C227.855 465.259 228.415 465.339 229.385 466.279C229.675 466.554 229.943 466.852 230.185 467.169C230.439 467.483 230.57 467.88 230.551 468.283C230.533 468.687 230.367 469.07 230.085 469.359C229.87 469.566 229.643 469.759 229.405 469.939C226.959 471.737 223.91 472.513 220.902 472.104C217.894 471.696 215.163 470.134 213.285 467.749C211.323 465.337 210.297 462.297 210.395 459.189Z" fill="black"/>
    <path d="M281.945 459.569C281.945 456.079 281.945 452.569 281.945 449.089C281.945 447.259 282.425 446.779 284.245 446.759C288.335 446.759 292.425 446.759 296.525 446.759C296.921 446.769 297.316 446.81 297.705 446.879C297.997 446.945 298.263 447.098 298.466 447.317C298.67 447.537 298.802 447.813 298.845 448.109C298.845 448.509 298.925 448.909 298.925 449.299C298.925 451.099 298.425 451.609 296.605 451.629C294.205 451.629 291.815 451.629 289.415 451.629C288.815 451.629 288.225 451.629 287.625 451.709C287.432 451.741 287.251 451.829 287.107 451.962C286.963 452.096 286.862 452.268 286.815 452.459C286.815 454.049 286.815 455.639 286.815 457.229C286.842 457.475 286.96 457.702 287.144 457.866C287.329 458.031 287.568 458.121 287.815 458.119H291.105C291.805 458.119 292.505 458.119 293.195 458.199C293.493 458.248 293.768 458.388 293.982 458.599C294.197 458.81 294.342 459.083 294.395 459.379C294.44 460.169 294.44 460.96 294.395 461.749C294.328 462.043 294.172 462.309 293.948 462.511C293.725 462.713 293.444 462.842 293.145 462.879C291.845 462.879 290.545 462.879 289.255 462.959C288.659 462.96 288.064 463.007 287.475 463.099C287.339 463.145 287.213 463.219 287.108 463.318C287.003 463.416 286.92 463.536 286.865 463.669C286.752 464.151 286.698 464.644 286.705 465.139C286.705 466.739 286.705 468.339 286.705 469.929C286.696 470.328 286.625 470.722 286.495 471.099C286.432 471.289 286.325 471.462 286.182 471.603C286.04 471.743 285.866 471.848 285.675 471.909C284.904 472.127 284.092 472.161 283.305 472.009C282.957 471.962 282.637 471.794 282.401 471.534C282.165 471.275 282.029 470.94 282.015 470.589C282.015 469.889 282.015 469.189 282.015 468.489V459.489L281.945 459.569Z" fill="black"/>
    <path d="M261.525 459.419C261.525 456.329 261.525 453.229 261.525 450.139C261.525 449.439 261.525 448.739 261.615 448.049C261.677 447.755 261.824 447.486 262.037 447.275C262.25 447.063 262.521 446.919 262.815 446.859C263.209 446.801 263.607 446.768 264.005 446.759H276.285C276.586 446.763 276.887 446.786 277.185 446.829C277.479 446.878 277.753 447.011 277.971 447.214C278.19 447.417 278.344 447.679 278.415 447.969C278.579 448.855 278.552 449.765 278.335 450.639C278.281 450.834 278.177 451.011 278.033 451.153C277.889 451.295 277.71 451.397 277.515 451.449C277.033 451.564 276.54 451.624 276.045 451.629C273.645 451.629 271.255 451.629 268.855 451.629C268.259 451.621 267.663 451.668 267.075 451.769C266.938 451.808 266.812 451.878 266.706 451.973C266.6 452.069 266.518 452.187 266.465 452.319C266.343 452.904 266.286 453.501 266.295 454.099C266.295 458.489 265.825 458.099 270.295 458.159C271.185 458.159 272.085 458.219 272.975 458.279C273.21 458.352 273.424 458.482 273.598 458.656C273.773 458.83 273.902 459.044 273.975 459.279C274.155 460.16 274.155 461.068 273.975 461.949C273.882 462.179 273.737 462.385 273.551 462.55C273.366 462.714 273.145 462.834 272.905 462.899C272.205 462.949 271.505 462.979 270.815 462.999C269.715 462.999 268.615 462.999 267.515 462.999C267.213 462.991 266.921 463.102 266.7 463.308C266.479 463.513 266.348 463.798 266.335 464.099C266.335 465.199 266.335 466.289 266.335 467.389C266.335 468.489 266.335 469.589 266.265 470.679C266.233 471.031 266.076 471.361 265.823 471.608C265.57 471.855 265.238 472.005 264.885 472.029C264.191 472.054 263.496 472.034 262.805 471.969C262.509 471.914 262.238 471.766 262.031 471.547C261.824 471.328 261.692 471.048 261.655 470.749C261.655 470.049 261.575 469.349 261.575 468.659C261.515 465.609 261.525 462.519 261.525 459.419Z" fill="black"/>
    <path d="M463.005 466.229C462.484 466.251 461.963 466.166 461.475 465.98C460.987 465.794 460.542 465.51 460.168 465.145C459.793 464.781 459.497 464.345 459.297 463.862C459.097 463.38 458.998 462.861 459.005 462.339C458.997 461.819 459.092 461.303 459.285 460.82C459.478 460.337 459.764 459.897 460.127 459.525C460.491 459.153 460.924 458.857 461.403 458.653C461.881 458.45 462.395 458.343 462.915 458.339C463.92 458.368 464.877 458.774 465.596 459.476C466.315 460.178 466.743 461.126 466.795 462.129C466.824 462.649 466.747 463.169 466.571 463.659C466.394 464.149 466.121 464.599 465.768 464.981C465.414 465.363 464.988 465.671 464.513 465.885C464.039 466.1 463.526 466.217 463.005 466.229Z" fill="black"/>
    <path d="M195.276 462.489C195.249 463.011 195.119 463.521 194.892 463.991C194.665 464.462 194.347 464.882 193.956 465.227C193.565 465.573 193.108 465.837 192.614 466.004C192.119 466.171 191.596 466.237 191.076 466.199C190.137 466.003 189.299 465.477 188.716 464.715C188.133 463.954 187.843 463.008 187.898 462.051C187.954 461.093 188.352 460.188 189.02 459.499C189.687 458.81 190.58 458.385 191.536 458.299C192.584 458.366 193.565 458.843 194.265 459.627C194.964 460.411 195.328 461.44 195.276 462.489Z" fill="black"/>
</svg>
